<svg width="379" height="360" viewBox="0 0 379 360" fill="none" xmlns="http://www.w3.org/2000/svg">
<path d="M108.787 274.792C166.696 303.53 260.589 303.53 318.504 274.792C376.42 246.055 376.413 199.466 318.504 170.729C260.596 141.992 166.696 141.985 108.78 170.729C50.8643 199.473 50.8712 246.055 108.787 274.792Z" fill="#FAFAFA" fill-opacity="0.5"/>
<path d="M262.102 280.073C273.81 280.073 283.302 275.775 283.302 270.474C283.302 265.173 273.81 260.875 262.102 260.875C250.395 260.875 240.903 265.173 240.903 270.474C240.903 275.775 250.395 280.073 262.102 280.073Z" fill="#F0F0F0"/>
<path d="M96.333 104.485V137.509C96.333 138.592 97.1348 139.039 98.1301 138.494L178.849 94.2227C179.371 93.8984 179.806 93.4621 180.118 92.9489C180.43 92.4357 180.611 91.86 180.646 91.2682V58.2174C180.646 57.1341 179.837 56.6877 178.849 57.2326L98.1301 101.504C97.603 101.829 97.165 102.27 96.8525 102.788C96.54 103.306 96.3619 103.888 96.333 104.485V104.485Z" fill="#F0F0F0"/>
<path d="M101.952 103.966L126.144 90.7036C127.257 90.093 128.148 90.5854 128.148 91.8001V114.891C128.11 115.549 127.909 116.19 127.561 116.761C127.212 117.331 126.727 117.815 126.144 118.174L101.952 131.443C100.846 132.047 99.9473 131.554 99.9473 130.34V107.262C99.9847 106.601 100.186 105.959 100.534 105.386C100.882 104.813 101.368 104.327 101.952 103.966V103.966Z" fill="#FAFAFA"/>
<path d="M121.54 102.226L114.345 116.395L110.682 114.386C110.33 114.203 109.917 114.157 109.53 114.257C109.144 114.358 108.813 114.597 108.608 114.924L99.9473 129.112V130.353C99.9473 131.568 100.846 132.06 101.952 131.456L126.144 118.187C126.726 117.828 127.21 117.343 127.558 116.773C127.907 116.203 128.109 115.562 128.148 114.904V106.783L123.31 101.964C123.202 101.82 123.054 101.708 122.883 101.64C122.711 101.571 122.523 101.55 122.34 101.577C122.156 101.604 121.984 101.679 121.843 101.794C121.702 101.909 121.597 102.058 121.54 102.226V102.226Z" fill="#3498DB"/>
<path d="M103.583 112.416C105.078 111.49 106.322 110.242 107.214 108.774C108.106 107.306 108.622 105.659 108.719 103.966C108.719 102.541 108.235 101.51 107.44 100.959L101.952 103.966C101.37 104.325 100.885 104.81 100.537 105.38C100.189 105.95 99.9868 106.591 99.9473 107.249V112.744C100.894 113.269 102.166 113.191 103.583 112.416Z" fill="#3498DB"/>
<path d="M137.175 86.8097L173.525 66.8702C174.354 66.4172 175.025 66.7389 175.025 67.5925C174.988 68.0708 174.834 68.5341 174.573 68.9448C174.312 69.3555 173.953 69.702 173.525 69.956L137.175 89.8889C136.345 90.3419 135.675 90.0202 135.675 89.1667C135.712 88.6895 135.868 88.2275 136.128 87.818C136.389 87.4085 136.747 87.0631 137.175 86.8097Z" fill="#FAFAFA"/>
<path d="M137.175 93.631L173.525 73.6915C174.354 73.2385 175.025 73.5602 175.025 74.4137C174.988 74.892 174.834 75.3554 174.573 75.7661C174.312 76.1768 173.953 76.5233 173.525 76.7773L137.175 96.7102C136.345 97.1632 135.675 96.8415 135.675 95.9946C135.711 95.5163 135.866 95.0529 136.127 94.6422C136.387 94.2315 136.746 93.885 137.175 93.631V93.631Z" fill="#FAFAFA"/>
<path d="M137.175 100.454L173.525 80.5208C174.354 80.0678 175.025 80.3895 175.025 81.2365C174.988 81.7148 174.834 82.1781 174.573 82.5888C174.312 82.9996 173.953 83.346 173.525 83.6001L137.175 103.533C136.345 103.993 135.675 103.671 135.675 102.817C135.711 102.339 135.866 101.876 136.127 101.465C136.387 101.054 136.746 100.708 137.175 100.454Z" fill="#FAFAFA"/>
<path d="M137.175 107.275L173.525 87.3419C174.354 86.8889 175.025 87.2106 175.025 88.0641C174.987 88.5413 174.832 89.0033 174.571 89.4128C174.311 89.8223 173.952 90.1678 173.525 90.4211L137.175 110.393C136.345 110.846 135.675 110.525 135.675 109.671C135.706 109.187 135.858 108.717 136.119 108.3C136.38 107.884 136.742 107.532 137.175 107.275V107.275Z" fill="#FAFAFA"/>
<path d="M79.4668 208.391V159.931C79.5 159.339 79.6801 158.763 79.9924 158.249C80.3048 157.736 80.7404 157.3 81.2639 156.977L142.311 123.493C143.299 122.948 144.108 123.388 144.108 124.477V172.937C144.073 173.529 143.892 174.105 143.58 174.618C143.268 175.131 142.833 175.568 142.311 175.892L81.2639 209.376C80.2686 209.921 79.4668 209.481 79.4668 208.391Z" fill="#F0F0F0"/>
<path d="M79.4668 205.968V208.391C79.4668 209.481 80.2686 209.921 81.2639 209.376L142.311 175.892C142.833 175.567 143.268 175.131 143.58 174.618C143.892 174.105 144.073 173.529 144.108 172.937V170.508L79.4668 205.968Z" fill="#3498DB"/>
<path d="M109.001 162.017L115.222 161.709C115.983 161.669 116.19 162.076 115.685 162.628L108.538 170.349C108.034 170.894 107.626 170.743 107.626 170.021V163.403C107.629 163.049 107.772 162.71 108.027 162.453C108.282 162.196 108.63 162.04 109.001 162.017Z" fill="#3498DB"/>
<path d="M107.398 174.584C106.653 174.593 105.918 174.414 105.269 174.065C103.735 173.218 102.892 171.439 102.892 169.115C102.892 164.375 106.41 158.61 110.737 156.214C112.873 155.038 114.884 154.861 116.432 155.702C117.981 156.542 118.817 158.328 118.817 160.645C118.817 165.392 115.292 171.15 110.972 173.547C109.896 174.183 108.664 174.541 107.398 174.584V174.584ZM114.31 155.629C113.129 155.674 111.98 156.011 110.979 156.608C106.783 158.906 103.375 164.519 103.375 169.115C103.375 171.295 104.136 172.916 105.518 173.671C106.901 174.426 108.753 174.249 110.737 173.159C114.932 170.855 118.34 165.281 118.34 160.645C118.34 158.466 117.58 156.851 116.197 156.089C115.619 155.782 114.966 155.623 114.303 155.629H114.31Z" fill="#3498DB"/>
<path d="M82.8328 114.897L79.0519 112.836C77.2479 111.687 74.7388 111.733 71.9671 113.256C66.4375 116.276 62 123.938 62 130.372V131.836C62 138.271 71.11 145.256 71.11 145.256L74.8287 147.259C74.8287 147.259 72.5961 144.836 72.8519 144.337C75.3195 139.584 81.9204 126.151 81.9204 120.898V119.434C81.9344 118.374 81.7925 117.318 81.4988 116.296L81.9204 116.526L82.8328 114.897ZM71.9602 129.65C69.1954 131.16 66.9767 129.932 66.9767 126.919C68.4558 126.696 72.1814 120.655 71.9602 118.718C74.725 117.208 76.9369 118.436 76.9438 121.45C76.8501 123.092 76.35 124.691 75.4842 126.116C74.6183 127.541 73.411 128.751 71.9602 129.65Z" fill="#3498DB"/>
<g opacity="0.2">
<path opacity="0.2" d="M82.8328 114.897L79.0519 112.836C77.2479 111.687 74.7388 111.733 71.9671 113.256C66.4375 116.276 62 123.938 62 130.372V131.836C62 138.271 71.11 145.256 71.11 145.256L74.8287 147.259C74.8287 147.259 72.5961 144.836 72.8519 144.337C75.3195 139.584 81.9204 126.151 81.9204 120.898V119.434C81.9344 118.374 81.7925 117.318 81.4988 116.296L81.9204 116.526L82.8328 114.897ZM71.9602 129.65C69.1954 131.16 66.9767 129.932 66.9767 126.919C68.4558 126.696 72.1814 120.655 71.9602 118.718C74.725 117.208 76.9369 118.436 76.9438 121.45C76.8501 123.092 76.35 124.691 75.4842 126.116C74.6183 127.541 73.411 128.751 71.9602 129.65Z" fill="black"/>
</g>
<path d="M82.8332 114.898C82.7919 114.87 82.7479 114.846 82.7018 114.826C80.9255 113.88 78.5546 114.011 75.9419 115.443C72.002 117.609 68.5944 122.146 66.9563 126.919C66.3228 128.735 65.9871 130.633 65.9609 132.546V134.03C65.9609 138.987 71.8707 144.738 74.5871 147.121C74.6459 147.171 74.7083 147.217 74.7738 147.259C74.7738 147.259 74.7738 147.259 74.7738 147.259C74.9335 147.352 75.1119 147.412 75.2976 147.436C75.4833 147.459 75.6721 147.445 75.8518 147.395C76.0315 147.345 76.1982 147.26 76.3411 147.145C76.484 147.03 76.6 146.888 76.6815 146.727C79.0316 142.132 85.8675 128.423 85.8675 123.092V121.627C85.909 118.318 84.7271 115.981 82.8332 114.898ZM71.0482 130.051C70.9908 129.739 70.963 129.422 70.9652 129.106C71.0565 127.462 71.5548 125.862 72.4195 124.436C73.2843 123.01 74.4911 121.798 75.9419 120.899C76.2317 120.74 76.5345 120.604 76.8474 120.492C79.1698 119.691 80.9255 120.958 80.9255 123.63C80.8324 125.272 80.3325 126.87 79.4665 128.294C78.6005 129.717 77.3929 130.927 75.9419 131.824C73.5019 133.176 71.4698 132.362 71.0482 130.051Z" fill="#3498DB"/>
<path d="M80.9251 123.637C80.832 125.279 80.3322 126.877 79.4662 128.3C78.6002 129.724 77.3926 130.934 75.9416 131.831C73.5016 133.144 71.4695 132.362 71.0479 130.051C71.3646 129.945 71.6701 129.811 71.9602 129.651C73.4101 128.752 74.6164 127.541 75.4811 126.116C76.3458 124.691 76.8445 123.093 76.9369 121.45C76.94 121.131 76.9099 120.812 76.847 120.498C79.1695 119.697 80.9251 120.965 80.9251 123.637Z" fill="#3498DB"/>
<g opacity="0.2">
<path opacity="0.2" d="M80.9251 123.637C80.832 125.279 80.3322 126.877 79.4662 128.3C78.6002 129.724 77.3926 130.934 75.9416 131.831C73.5016 133.144 71.4695 132.362 71.0479 130.051C71.3646 129.945 71.6701 129.811 71.9602 129.651C73.4101 128.752 74.6164 127.541 75.4811 126.116C76.3458 124.691 76.8445 123.093 76.9369 121.45C76.94 121.131 76.9099 120.812 76.847 120.498C79.1695 119.697 80.9251 120.965 80.9251 123.637Z" fill="black"/>
</g>
<path d="M278.125 87.1063C278.043 87.1053 277.962 87.085 277.89 87.0472L275.948 85.977C275.894 85.9477 275.847 85.9087 275.809 85.8621C275.772 85.8156 275.744 85.7624 275.728 85.7057C275.712 85.649 275.708 85.5899 275.716 85.5317C275.724 85.4734 275.744 85.4173 275.775 85.3664C275.806 85.3156 275.847 85.271 275.896 85.2352C275.945 85.1994 276.001 85.1731 276.06 85.1579C276.12 85.1427 276.182 85.1387 276.244 85.1464C276.305 85.154 276.364 85.173 276.418 85.2023L278.36 86.2725C278.414 86.3017 278.461 86.3407 278.498 86.3873C278.536 86.4338 278.564 86.487 278.58 86.5437C278.596 86.6004 278.6 86.6596 278.592 86.7178C278.584 86.7761 278.564 86.8322 278.533 86.8831C278.491 86.951 278.432 87.0075 278.36 87.0467C278.289 87.0858 278.208 87.1064 278.125 87.1063V87.1063Z" fill="white"/>
<path d="M152.568 126.033V223.714C152.568 224.804 153.37 225.244 154.359 224.699L274.31 158.919C274.832 158.595 275.267 158.159 275.579 157.645C275.891 157.132 276.072 156.556 276.107 155.965V58.2831C276.107 57.1932 275.298 56.7533 274.31 57.2982L154.359 123.078C153.837 123.402 153.403 123.839 153.092 124.352C152.781 124.865 152.601 125.441 152.568 126.033V126.033Z" fill="#455A64"/>
<path d="M166.606 144.075C166.606 147.482 169.281 148.769 172.592 146.957L267.681 94.8071V82.4902L172.592 134.633C169.281 136.452 166.606 140.674 166.606 144.075Z" fill="#F5F5F5"/>
<path d="M275.768 78.0722C279.072 76.2601 281.754 77.547 281.754 80.9479C281.754 84.3488 279.072 88.577 275.768 90.3891L267.716 94.8077V82.4908L275.768 78.0722Z" fill="#3498DB"/>
<path d="M272.865 88.4513C272.521 88.4559 272.182 88.372 271.884 88.2084C271.517 87.9749 271.223 87.6516 271.033 87.2726C270.843 86.8935 270.764 86.4728 270.806 86.0549C270.855 85.0273 271.164 84.026 271.705 83.1349C272.246 82.2439 273.004 81.4891 273.916 80.9338C274.264 80.6641 274.69 80.5015 275.138 80.4676C275.586 80.4337 276.034 80.53 276.422 80.7438C276.811 80.9577 277.122 81.2788 277.314 81.6646C277.506 82.0504 277.569 82.4825 277.496 82.9035C277.445 83.9307 277.136 84.9314 276.595 85.8222C276.054 86.713 275.296 87.4681 274.386 88.0246C273.927 88.2909 273.403 88.438 272.865 88.4513V88.4513ZM275.43 81.3934C275.059 81.4108 274.699 81.5194 274.386 81.7085C273.623 82.1903 272.987 82.8334 272.529 83.5874C272.071 84.3415 271.803 85.186 271.746 86.0549C271.674 86.3164 271.695 86.5928 271.805 86.8419C271.915 87.091 272.108 87.2989 272.355 87.4338C272.601 87.5687 272.887 87.6231 273.169 87.5887C273.451 87.5542 273.713 87.4329 273.916 87.2433C274.68 86.7623 275.316 86.1194 275.774 85.3652C276.233 84.611 276.5 83.766 276.556 82.8969C276.592 82.6366 276.554 82.3719 276.447 82.1298C276.341 81.8877 276.168 81.6767 275.948 81.5181C275.79 81.4324 275.611 81.3893 275.43 81.3934V81.3934Z" fill="white"/>
<path d="M277.151 105.03L185.221 155.413C184.697 155.736 184.26 156.172 183.948 156.685C183.636 157.199 183.456 157.775 183.424 158.368V185.24C183.424 186.33 184.226 186.77 185.221 186.225L277.151 135.822C277.674 135.499 278.11 135.063 278.422 134.549C278.735 134.036 278.915 133.46 278.948 132.867V106.015C278.913 104.925 278.112 104.485 277.151 105.03Z" fill="#3498DB"/>
<path opacity="0.2" d="M277.151 105.03L185.221 155.413C184.697 155.736 184.26 156.172 183.948 156.685C183.636 157.199 183.456 157.775 183.424 158.368V185.24C183.424 186.33 184.226 186.77 185.221 186.225L277.151 135.822C277.674 135.499 278.11 135.063 278.422 134.549C278.735 134.036 278.915 133.46 278.948 132.867V106.015C278.913 104.925 278.112 104.485 277.151 105.03Z" fill="white"/>
<path d="M218.641 141.567L235.299 132.428C236.128 131.975 236.798 132.297 236.798 133.15C236.761 133.627 236.605 134.089 236.345 134.499C236.084 134.908 235.726 135.254 235.299 135.507L218.641 144.646C217.811 145.099 217.141 144.778 217.141 143.924C217.178 143.447 217.334 142.985 217.594 142.575C217.855 142.166 218.213 141.82 218.641 141.567V141.567Z" fill="white"/>
<path d="M217.141 150.082C217.141 150.936 217.832 151.257 218.641 150.804L268.995 123.19C269.421 122.935 269.779 122.588 270.038 122.177C270.297 121.767 270.451 121.304 270.488 120.826C270.488 119.979 269.796 119.658 268.995 120.111L218.641 147.725C218.213 147.979 217.855 148.324 217.594 148.733C217.334 149.143 217.178 149.605 217.141 150.082Z" fill="white"/>
<path d="M217.141 156.24C217.141 157.094 217.832 157.416 218.641 156.963L268.995 129.348C269.421 129.093 269.779 128.746 270.038 128.335C270.297 127.925 270.451 127.462 270.488 126.985C270.488 126.138 269.796 125.816 268.995 126.269L218.641 153.883C218.213 154.137 217.855 154.482 217.594 154.892C217.334 155.301 217.178 155.763 217.141 156.24Z" fill="white"/>
<path d="M217.141 162.399C217.141 163.252 217.832 163.574 218.641 163.121L268.995 135.506C269.421 135.251 269.779 134.904 270.038 134.494C270.297 134.083 270.451 133.62 270.488 133.143C270.488 132.296 269.796 131.974 268.995 132.427L218.641 160.042C218.213 160.295 217.855 160.64 217.594 161.05C217.334 161.459 217.178 161.921 217.141 162.399V162.399Z" fill="white"/>
<path d="M188.055 156.95L209.731 145.06C210.726 144.521 211.528 144.961 211.528 146.045V166.746C211.494 167.338 211.314 167.914 211.002 168.427C210.69 168.941 210.254 169.377 209.731 169.7L188.055 181.584C187.067 182.129 186.258 181.689 186.258 180.605V159.904C186.291 159.312 186.471 158.736 186.783 158.223C187.096 157.709 187.531 157.273 188.055 156.95V156.95Z" fill="white"/>
<path d="M205.611 155.393L199.163 168.091L195.879 166.292C195.562 166.118 195.185 166.071 194.831 166.161C194.478 166.25 194.176 166.47 193.992 166.771L186.258 179.488V180.598C186.258 181.688 187.067 182.128 188.055 181.583L209.731 169.699C210.255 169.376 210.69 168.94 211.003 168.427C211.315 167.913 211.495 167.337 211.528 166.745V159.477L207.167 155.157C207.068 155.036 206.937 154.943 206.787 154.887C206.637 154.831 206.474 154.814 206.315 154.838C206.157 154.862 206.007 154.926 205.884 155.024C205.76 155.122 205.666 155.249 205.611 155.393V155.393Z" fill="#3498DB"/>
<path d="M189.513 164.526C190.854 163.696 191.969 162.577 192.769 161.26C193.568 159.944 194.03 158.467 194.117 156.949C194.163 156.446 194.083 155.939 193.883 155.47C193.684 155.001 193.371 154.583 192.969 154.251L188.055 156.949C187.531 157.272 187.096 157.709 186.783 158.222C186.471 158.735 186.291 159.312 186.258 159.904V164.828C187.094 165.288 188.242 165.222 189.513 164.526Z" fill="#3498DB"/>
<path d="M277.151 145.06L185.221 195.444C184.697 195.767 184.262 196.203 183.949 196.716C183.637 197.23 183.457 197.806 183.424 198.398V225.29C183.424 226.374 184.226 226.814 185.221 226.275L277.151 175.859C277.674 175.536 278.11 175.1 278.422 174.586C278.735 174.073 278.915 173.496 278.948 172.904V146.045C278.913 144.961 278.112 144.535 277.151 145.06Z" fill="#3498DB"/>
<path opacity="0.2" d="M277.151 145.06L185.221 195.444C184.697 195.767 184.262 196.203 183.949 196.716C183.637 197.23 183.457 197.806 183.424 198.398V225.29C183.424 226.374 184.226 226.814 185.221 226.275L277.151 175.859C277.674 175.536 278.11 175.1 278.422 174.586C278.735 174.073 278.915 173.496 278.948 172.904V146.045C278.913 144.961 278.112 144.535 277.151 145.06Z" fill="white"/>
<path d="M218.641 181.596L235.299 172.463C236.128 172.01 236.798 172.332 236.798 173.179C236.762 173.657 236.607 174.121 236.346 174.531C236.086 174.942 235.727 175.288 235.299 175.542L218.641 184.675C217.811 185.128 217.141 184.806 217.141 183.959C217.177 183.481 217.332 183.018 217.593 182.607C217.853 182.196 218.212 181.85 218.641 181.596Z" fill="white"/>
<path d="M217.141 190.119C217.141 190.966 217.832 191.287 218.641 190.834L268.995 163.22C269.42 162.965 269.777 162.62 270.036 162.21C270.296 161.801 270.45 161.339 270.488 160.863C270.488 160.009 269.796 159.688 268.995 160.141L218.641 187.755C218.212 188.009 217.853 188.356 217.593 188.766C217.332 189.177 217.177 189.641 217.141 190.119Z" fill="white"/>
<path d="M217.141 196.277C217.141 197.124 217.832 197.446 218.641 196.993L268.995 169.378C269.42 169.124 269.777 168.778 270.036 168.368C270.296 167.959 270.45 167.498 270.488 167.021C270.488 166.168 269.796 165.846 268.995 166.299L218.641 193.913C218.212 194.168 217.853 194.514 217.593 194.925C217.332 195.335 217.177 195.799 217.141 196.277Z" fill="white"/>
<path d="M217.141 202.435C217.141 203.282 217.832 203.604 218.641 203.151L268.995 175.536C269.42 175.282 269.777 174.936 270.036 174.527C270.296 174.117 270.45 173.656 270.488 173.179C270.488 172.326 269.796 172.004 268.995 172.457L218.641 200.072C218.212 200.326 217.853 200.672 217.593 201.083C217.332 201.494 217.177 201.957 217.141 202.435Z" fill="white"/>
<path d="M188.055 196.985L209.731 185.095C210.726 184.55 211.528 184.99 211.528 186.08V206.774C211.496 207.367 211.316 207.944 211.004 208.457C210.692 208.971 210.255 209.407 209.731 209.729L188.055 221.619C187.067 222.164 186.258 221.724 186.258 220.634V199.94C186.291 199.348 186.471 198.771 186.783 198.258C187.096 197.744 187.531 197.308 188.055 196.985V196.985Z" fill="white"/>
<path d="M205.611 195.43L199.163 208.128L195.879 206.322C195.722 206.237 195.548 206.181 195.368 206.159C195.188 206.137 195.005 206.149 194.83 206.194C194.655 206.239 194.491 206.317 194.347 206.422C194.203 206.528 194.083 206.659 193.992 206.808L186.258 219.526V220.635C186.258 221.725 187.067 222.165 188.055 221.62L209.731 209.73C210.254 209.408 210.69 208.973 211.002 208.461C211.315 207.949 211.495 207.373 211.528 206.782V199.507L207.167 195.194C207.069 195.071 206.938 194.976 206.788 194.919C206.638 194.861 206.474 194.844 206.314 194.868C206.154 194.892 206.005 194.958 205.881 195.057C205.757 195.156 205.664 195.285 205.611 195.43V195.43Z" fill="#3498DB"/>
<path d="M189.513 204.556C190.853 203.727 191.969 202.609 192.768 201.294C193.568 199.978 194.03 198.502 194.117 196.986C194.163 196.482 194.083 195.975 193.883 195.506C193.684 195.037 193.371 194.619 192.969 194.287L188.055 196.986C187.531 197.309 187.096 197.745 186.783 198.258C186.471 198.772 186.291 199.348 186.258 199.94V204.864C187.094 205.317 188.242 205.252 189.513 204.556Z" fill="#3498DB"/>
<path d="M276.107 62.4653V58.2831C276.107 57.1932 275.298 56.7533 274.31 57.2982L154.365 123.078C153.842 123.401 153.406 123.837 153.094 124.351C152.782 124.864 152.602 125.44 152.568 126.033V130.221L276.107 62.4653Z" fill="#3498DB"/>
<path d="M261.392 65.9841C261.005 66.2253 260.683 66.5494 260.453 66.9303C260.222 67.3112 260.089 67.7383 260.064 68.177C260.064 68.9846 260.659 69.3128 261.392 68.9058C261.781 68.6679 262.104 68.3456 262.336 67.9655C262.568 67.5853 262.702 67.1583 262.726 66.7195C262.726 65.9119 262.131 65.5836 261.392 65.9841Z" fill="#F5F5F5"/>
<path d="M266.679 63.1222C266.291 63.3626 265.968 63.6864 265.736 64.0674C265.504 64.4484 265.37 64.8758 265.345 65.3151C265.345 66.1226 265.946 66.4443 266.679 66.0439C267.068 65.8046 267.392 65.4811 267.624 65.0999C267.855 64.7187 267.989 64.2907 268.013 63.851C268.013 63.0106 267.418 62.6889 266.679 63.1222Z" fill="#F5F5F5"/>
<path d="M271.967 60.1944C271.578 60.4322 271.254 60.7545 271.022 61.1347C270.79 61.5148 270.657 61.9419 270.633 62.3807C270.633 63.1883 271.227 63.5165 271.967 63.116C272.353 62.8749 272.675 62.5508 272.906 62.1699C273.136 61.7889 273.269 61.3619 273.294 60.9232C273.294 60.1156 272.699 59.7873 271.967 60.1944Z" fill="#F5F5F5"/>
<path d="M333.493 293.838C333.703 294.343 333.846 294.87 333.922 295.407C334.117 295.964 334.162 296.557 334.053 297.134C333.588 297.871 332.848 298.415 331.98 298.657C331.362 298.792 330.722 298.804 330.099 298.691C329.477 298.578 328.886 298.343 328.365 298.001C327.1 297.285 326.153 296.412 324.356 295.933C323.074 295.67 321.867 295.149 320.817 294.403C319.821 293.648 318.494 291.547 320.395 291.061C322.296 290.575 326.436 292.289 330.203 292.446L333.493 293.838Z" fill="#263238"/>
<path d="M333.314 291.476C333.314 291.476 333.535 293.984 333.535 294.292C333.535 295.139 330.245 296.262 329.637 294.292L329.111 291.627L333.314 291.476Z" fill="#F28F8F"/>
<path d="M329.277 236.45C330.409 238.03 331.445 239.67 332.381 241.361C332.381 241.361 332.706 245.012 332.706 247.441C332.706 251.905 331.98 255.352 331.323 264.15C332.392 265.881 333.004 267.832 333.107 269.836C333.383 273.821 333.39 273.775 333.418 292.159C332.788 292.481 332.097 292.681 331.384 292.746C330.672 292.812 329.954 292.741 329.27 292.539L323.05 266.796L322.358 256.692L320.409 244.132L329.277 236.45Z" fill="#37474F"/>
<path d="M314.554 298.441C314.776 298.658 314.7 299.098 314.803 299.82C314.918 300.375 314.948 300.944 314.893 301.507C314.53 302.288 313.875 302.913 313.054 303.26C312.458 303.465 311.823 303.55 311.191 303.51C310.558 303.471 309.94 303.307 309.377 303.031C308.036 302.466 306.979 301.717 305.133 301.448C303.827 301.341 302.561 300.967 301.422 300.352C300.336 299.695 298.74 297.791 300.564 297.069C302.389 296.347 306.965 297.64 310.718 297.351L314.554 298.441Z" fill="#263238"/>
<path d="M315.418 295.289C315.418 295.289 314.727 298.152 314.54 298.789C314.125 300.319 310.552 300.397 310.552 298.631L310.794 294.561L315.418 295.289Z" fill="#F28F8F"/>
<path d="M321.211 237.23C323.001 240.572 324.729 243.52 324.784 247.079C324.916 254.609 321.625 262.902 320.416 268.344C320.776 270.314 320.878 272.319 320.72 274.312C320.478 276.591 315.011 297.292 315.011 297.292C315.011 297.292 311.969 297.896 310.677 296.589L312.211 256.73L312.626 245.155L321.211 237.23Z" fill="#37474F"/>
<path d="M318.75 216.819L319.877 222.747L325.517 222.353L324.335 215.637L318.75 216.819Z" fill="#FFA8A7"/>
<path d="M331.468 221.92C330.908 220.312 328.758 218.559 326.629 218.939C323.432 219.456 320.28 220.202 317.201 221.172C315.232 221.828 313.434 223.463 313.268 229.622L312.653 245.116C313.505 245.835 314.527 246.349 315.632 246.613C318.625 247.394 320.602 247.86 325.15 246.915C331.074 245.687 332.484 242.28 332.484 242.28C332.484 242.28 332.256 234.079 332.076 229.622C331.931 225.833 331.848 223.03 331.468 221.92Z" fill="#455A64"/>
<path d="M316.345 209.249L287.625 201.85C285.026 201.423 283.941 207.45 286.54 207.87L316.034 210.7L316.345 209.249Z" fill="#263238"/>
<path d="M308.084 221.75L302.216 221.921C302.216 221.921 303.101 213.628 303.647 212.539C304.193 211.449 305.499 211.225 306.799 210.877C308.098 210.53 308.091 209.939 308.091 209.939L306.923 209.827C305.9 209.729 305.492 208.514 305.935 207.693C306.149 207.312 306.495 206.708 307.117 206.873L308.665 207.273C308.689 206.624 308.519 205.982 308.174 205.422C307.656 204.877 307.31 205.047 306.273 204.706C305.506 204.45 303.937 203.997 302.672 204.489C301.407 204.982 300.447 207.24 300.122 208.836C299.793 210.681 299.26 212.487 298.532 214.226C297.405 217.18 295.767 223.247 295.594 225.676C295.518 226.799 295.629 227.469 296.942 227.764C298.256 228.059 307.919 228.079 307.919 228.079L308.084 221.75Z" fill="#FFA8A7"/>
<path d="M314.575 209.8C314.575 209.8 313.192 211.717 313.386 211.927C313.698 212.125 314.044 212.269 314.409 212.354L314.575 209.8Z" fill="#FFA8A7"/>
<path d="M318.743 203.747C317.429 204.403 315.162 205.539 314.533 210.109C313.89 214.796 314.74 216.306 315.404 216.93C315.86 217.35 318.307 217.377 319.551 217.022C321.086 216.589 324.549 215.335 326.132 212.925C327.991 210.089 328.406 206.294 326.311 204.784C325.246 204.016 323.992 203.518 322.668 203.337C321.344 203.155 319.993 203.296 318.743 203.747V203.747Z" fill="#FFA8A7"/>
<path d="M322.607 260.322L325.6 252.285C327.92 251.504 329.999 250.187 331.648 248.451C331.648 248.451 330.957 250.743 326.229 253.093L322.946 260.696V264.924L322.607 260.322Z" fill="#263238"/>
<path d="M314.264 205.29C314.693 206.412 315.418 209.17 318.446 210.319C318.446 210.319 318.881 208.566 320.43 208.75C321.978 208.933 322.247 210.818 321.294 211.986C320.34 213.155 319.414 212.735 319.414 212.735C319.414 212.735 319.206 215.249 320.976 216.392C321.634 216.761 322.374 216.98 323.137 217.031C323.9 217.082 324.665 216.964 325.372 216.687C326.388 216.247 327.832 213.93 328.676 212.026C330.459 208.008 330.715 204.804 327.984 203.766C327.646 201.941 326.782 201.252 325.04 200.91C321.294 200.182 318.46 202.519 315.315 202.105C313.704 201.889 313.766 204.003 314.264 205.29Z" fill="#263238"/>
<path d="M328.074 204.404L329.844 203.36C329.69 203.155 329.459 203.014 329.199 202.964C328.939 202.915 328.669 202.962 328.444 203.095C328.219 203.227 328.056 203.437 327.987 203.68C327.918 203.923 327.949 204.182 328.074 204.404V204.404Z" fill="#263238"/>
<path d="M306.772 221.638C306.772 221.638 315.031 221.185 317.14 221.172C319.248 221.159 321.487 224.579 320.174 226.91C319.303 228.44 316.587 228.965 313.165 229.123C309.744 229.28 306.295 229.28 306.295 229.28C306.295 229.28 303.219 225.952 306.772 221.638Z" fill="#455A64"/>
<path d="M313.269 229.122C313.269 229.122 318.501 229.056 320.216 226.909C320.216 226.909 319.815 228.222 317.782 229.03C316.326 229.561 314.792 229.876 313.234 229.962L313.269 229.122Z" fill="#37474F"/>
<path d="M287.625 201.85C285.026 201.423 283.941 207.45 286.54 207.87L290.687 208.264C289.001 208.1 290.169 202.5 291.454 202.828L287.625 201.85Z" fill="#455A64"/>
<path d="M336.745 172.543C336.746 173.765 336.359 174.959 335.634 175.969C334.909 176.979 333.881 177.758 332.683 178.205C331.486 178.652 330.174 178.745 328.92 178.473C327.665 178.201 326.526 177.576 325.652 176.68L325.23 176.194C324.246 174.947 323.803 173.39 323.993 171.843C324.183 170.296 324.991 168.877 326.25 167.879C327.509 166.881 329.123 166.38 330.76 166.479C332.396 166.579 333.93 167.271 335.045 168.414L335.48 168.913C336.301 169.963 336.745 171.235 336.745 172.543V172.543Z" fill="#455A64"/>
<path d="M336.745 172.543C336.746 173.765 336.359 174.959 335.634 175.969C334.909 176.979 333.881 177.758 332.683 178.204C331.486 178.651 330.174 178.744 328.92 178.472C327.665 178.2 326.526 177.575 325.652 176.679L325.23 176.193L298.577 145.617L309.809 139.459L335.045 168.4L335.48 168.899C336.304 169.952 336.748 171.23 336.745 172.543V172.543Z" fill="#455A64"/>
<path d="M314.695 164.105C315.815 165.22 317.338 165.89 318.957 165.979C320.577 166.069 322.171 165.57 323.419 164.586C324.666 163.601 325.474 162.203 325.678 160.674C325.882 159.146 325.467 157.601 324.517 156.351V156.351L321.22 152.576C322.206 153.823 322.649 155.382 322.459 156.93C322.269 158.479 321.46 159.899 320.199 160.897C318.938 161.895 317.322 162.395 315.684 162.293C314.046 162.191 312.512 161.495 311.398 160.35L314.695 164.105Z" fill="#3498DB"/>
<path d="M309.381 91.393C311.393 91.6057 313.338 92.2067 315.097 93.1591L306.989 88.6814C301.55 85.1295 293.718 85.3396 285.016 90.1061C268.586 99.1206 255.26 121.043 255.26 139.072C255.26 147.929 258.432 154.258 263.665 157.265L263.775 157.33L272.429 162.064C270.895 161.116 269.557 159.907 268.482 158.499C270.615 158.721 272.771 158.603 274.862 158.151C275.623 157.993 276.39 157.803 277.171 157.567C277.069 157.537 276.969 157.5 276.874 157.455C276.458 157.27 276.06 157.05 275.685 156.799C275.004 156.348 274.399 155.804 273.888 155.183C273.189 154.334 272.621 153.394 272.201 152.393C271.638 152.47 271.07 152.51 270.501 152.511C269.155 152.537 267.82 152.284 266.589 151.769C266.301 151.644 266.021 151.502 265.752 151.343C265.51 151.198 265.268 151.027 265.061 150.857C264.561 148.634 264.318 146.367 264.335 144.094C264.335 126.072 277.662 104.143 294.105 95.1288C296.205 93.9654 298.429 93.019 300.741 92.3056C301.364 92.5473 301.95 92.8675 302.483 93.2576C303.047 93.6689 303.556 94.1453 303.996 94.6757C304.697 95.5272 305.268 96.4689 305.69 97.4726C306.256 97.3974 306.826 97.3601 307.397 97.361C308.96 97.3212 310.506 97.6769 311.876 98.3918C312.223 98.5713 312.554 98.7777 312.865 99.009C312.74 98.4837 312.609 97.9651 312.45 97.4726C311.825 95.2854 310.785 93.225 309.381 91.393V91.393Z" fill="#263238"/>
<path d="M315.097 93.159L314.627 92.916C312.993 92.1032 311.214 91.5866 309.381 91.3928C307.413 91.1845 305.424 91.2709 303.485 91.6489C302.551 91.8171 301.628 92.0363 300.72 92.3055C298.408 93.0188 296.184 93.9653 294.084 95.1286C277.641 104.143 264.314 126.072 264.314 144.094C264.297 146.367 264.54 148.634 265.04 150.857C265.13 151.257 265.234 151.638 265.337 152.019C265.953 154.343 267.022 156.536 268.489 158.486C269.144 159.344 269.898 160.13 270.736 160.83C271.27 161.276 271.838 161.684 272.436 162.051C277.862 165.379 285.569 165.091 294.071 160.416C310.514 151.402 323.841 129.479 323.841 111.45C323.834 102.436 320.495 96.1003 315.097 93.159ZM311.848 98.4114C312.195 98.5909 312.526 98.7973 312.837 99.0285C313.358 99.4306 313.833 99.884 314.254 100.381C316.327 102.85 317.426 106.69 317.426 111.47C317.426 127.227 305.261 147.265 290.863 155.164C287.235 157.133 283.744 158.21 280.779 158.21C279.542 158.224 278.315 158 277.171 157.553C277.069 157.524 276.969 157.487 276.874 157.442C276.458 157.257 276.06 157.037 275.685 156.785C275.218 156.474 274.787 156.118 274.399 155.722V155.722C274.226 155.551 274.06 155.361 273.894 155.17C273.196 154.321 272.628 153.381 272.208 152.38C271.155 149.73 270.653 146.912 270.729 144.081C270.729 143.871 270.729 143.667 270.729 143.424C271.033 127.733 283.067 108.148 297.278 100.361C297.603 100.184 297.934 100.007 298.266 99.8426C300.558 98.6267 303.06 97.8106 305.655 97.4331C306.221 97.3579 306.791 97.3206 307.362 97.3215C308.592 97.3114 309.812 97.5346 310.95 97.978C311.262 98.0957 311.562 98.2385 311.848 98.4048V98.4114Z" fill="#455A64"/>
<path opacity="0.6" d="M314.647 109.645C314.647 125.403 302.482 145.44 288.084 153.339C284.455 155.308 280.972 156.385 278 156.385C276.765 156.399 275.54 156.176 274.398 155.729V155.729C274.226 155.558 274.06 155.368 273.894 155.177C273.195 154.328 272.627 153.388 272.207 152.387C271.154 149.737 270.652 146.919 270.728 144.088C270.728 143.878 270.728 143.674 270.728 143.431C271.032 127.74 283.066 108.155 297.277 100.368C297.602 100.191 297.934 100.014 298.266 99.8496C300.557 98.6336 303.06 97.8176 305.655 97.4401C306.22 97.3648 306.791 97.3275 307.362 97.3285C308.592 97.3184 309.811 97.5416 310.949 97.985C311.136 98.1623 311.309 98.3527 311.475 98.5431C313.548 101.025 314.647 104.866 314.647 109.645Z" fill="white"/>
<path d="M47.1455 299.453V248.874C47.1455 248.292 47.6424 247.82 48.2552 247.82H123.161C123.774 247.82 124.27 248.292 124.27 248.874V299.453C124.27 300.035 123.774 300.507 123.161 300.507H48.2552C47.6424 300.507 47.1455 300.035 47.1455 299.453Z" fill="#3498DB"/>
<path d="M121.646 300.96H49.6622C48.1897 300.96 46.9961 299.865 46.9961 298.516V250.124C46.9961 248.774 48.1897 247.68 49.6622 247.68H121.646C123.119 247.68 124.312 248.774 124.312 250.124V298.516C124.312 299.865 123.119 300.96 121.646 300.96Z" stroke="#0C1740" stroke-width="1.01835" stroke-miterlimit="10" stroke-linecap="round" stroke-linejoin="round"/>
<path d="M52.6937 292.242C52.0817 292.242 51.584 291.769 51.584 291.188V252.714C51.584 252.133 52.0817 251.66 52.6937 251.66H118.722C119.334 251.66 119.831 252.133 119.831 252.714V291.188C119.831 291.769 119.334 292.242 118.722 292.242H52.6937Z" fill="#0C1740"/>
<path opacity="0.72" d="M86.581 292.24L108.35 251.658H103.11L81.3418 292.24H86.581Z" fill="#192859"/>
<path d="M91.8902 302.4H81.2092C81.2092 305.867 77.5957 308.747 72.9244 309.003L68.9508 309.221C66.8376 309.337 65.1875 310.968 65.1875 312.941H107.911C107.911 310.968 106.261 309.337 104.148 309.221L100.174 309.003C95.5037 308.747 91.8902 305.868 91.8902 302.4Z" stroke="#0C1740" stroke-width="1.098" stroke-miterlimit="10" stroke-linecap="round" stroke-linejoin="round"/>
<path d="M51.5439 290.257V252.622C51.5439 251.483 52.516 250.56 53.715 250.56H118.304C119.503 250.56 120.475 251.483 120.475 252.622V290.257C120.475 291.396 119.503 292.32 118.304 292.32H53.715C52.516 292.32 51.5439 291.396 51.5439 290.257Z" fill="white" fill-opacity="0.7"/>
<path opacity="0.72" d="M72.6353 292.582L94.4042 252H83.9252L62.1562 292.582H72.6353Z" fill="#192859"/>
<g opacity="0.63">
<g opacity="0.63">
<path opacity="0.63" d="M95.5074 271.641C91.5384 269.831 87.5695 270.53 83.6006 271.418C83.6006 267.649 83.6006 263.879 83.6006 260.109C87.5695 259.22 91.5384 258.522 95.5074 260.331C95.5074 264.101 95.5074 267.871 95.5074 271.641Z" fill="#4988E2"/>
<path opacity="0.63" d="M95.5074 284.801C91.5384 282.992 87.5695 283.69 83.6006 284.579C83.6006 280.809 83.6006 277.039 83.6006 273.269C87.5695 272.38 91.5384 271.682 95.5074 273.491C95.5074 277.261 95.5074 281.031 95.5074 284.801Z" fill="#4988E2"/>
<path opacity="0.63" d="M81.6431 285.024C77.6742 285.913 73.7053 286.611 69.7363 284.802C69.7363 281.032 69.7363 277.262 69.7363 273.492C73.7053 275.301 77.6742 274.603 81.6431 273.714C81.6431 277.484 81.6431 281.254 81.6431 285.024Z" fill="#4988E2"/>
<path opacity="0.63" d="M81.6431 271.861C77.6742 272.75 73.7053 273.448 69.7363 271.639C69.7363 267.869 69.7363 264.099 69.7363 260.329C73.7053 262.138 77.6742 261.44 81.6431 260.551C81.6431 264.321 81.6431 268.091 81.6431 271.861Z" fill="#4988E2"/>
</g>
</g>
<path d="M91.286 311.985C90.249 310.902 89.6417 309.58 89.6417 308.16H78.9607C78.9607 309.581 78.3537 310.902 77.3164 311.985H91.286Z" fill="#958BA5"/>
<path d="M91.8902 302.4H81.2092C81.2092 305.867 77.5957 308.747 72.9244 309.003L68.9508 309.221C66.8376 309.337 65.1875 310.968 65.1875 312.941H107.911C107.911 310.968 106.261 309.337 104.148 309.221L100.174 309.003C95.5037 308.747 91.8902 305.868 91.8902 302.4Z" fill="#B4AAC1"/>
</svg>
